<?xml version="1.0" encoding="UTF-8"?>
<svg id="_레이어_2" data-name="레이어 2" xmlns="http://www.w3.org/2000/svg" xmlns:xlink="http://www.w3.org/1999/xlink" viewBox="0 0 474.49 474.49">
  <defs>
    <style>
      .cls-1 {
        fill: none;
      }

      .cls-2 {
        fill: #f0b430;
      }

      .cls-3 {
        fill: #e7973e;
      }

      .cls-4 {
        fill: url(#_무제_그라디언트);
      }

      .cls-5 {
        fill: #dd5f2d;
      }

      .cls-6 {
        fill: #fff;
      }

      .cls-7 {
        fill: #555356;
      }

      .cls-8 {
        fill: #df6428;
      }

      .cls-9 {
        fill: #fefefc;
      }

      .cls-10 {
        fill: #e0642e;
      }

      .cls-11 {
        fill: #e06528;
      }

      .cls-12 {
        fill: #9ecddd;
      }
    </style>
    <linearGradient id="_무제_그라디언트" data-name="무제 그라디언트" x1="238.73" y1="318.17" x2="427.48" y2="288.2" gradientTransform="translate(0 476) scale(1 -1)" gradientUnits="userSpaceOnUse">
      <stop offset=".18" stop-color="#e06528"/>
      <stop offset=".8" stop-color="#3f3639"/>
    </linearGradient>
  </defs>
  <g id="_레이어_2-2" data-name=" 레이어 2">
    <g id="_레이어_4" data-name=" 레이어 4">
      <path class="cls-5" d="M129.01,330.03c-3.33,0-6.67-.73-9.8-2.22h0s-38.42-18.24-38.42-18.24c-7.92-3.75-13.05-11.86-13.05-20.65v-69.23c0-8.76,5.11-16.86,13.03-20.64l38.44-18.25c7.11-3.38,15.34-2.88,22,1.33,6.66,4.21,10.64,11.43,10.64,19.32v105.71c0,7.88-3.97,15.09-10.63,19.31-3.73,2.36-7.96,3.56-12.21,3.56ZM128.21,308.83c.61.29,1.21.25,1.79-.11.57-.36.86-.89.86-1.56v-105.71c0-.68-.29-1.21-.86-1.57-.57-.36-1.16-.4-1.77-.11l-38.42,18.24c-.63.3-1.05.96-1.05,1.67v69.23c0,.71.41,1.37,1.04,1.67l38.42,18.24Z"/>
    </g>
    <g id="_레이어_3" data-name=" 레이어 3">
      <path class="cls-3" d="M361.39,226.28l-197.11-113.8c-21.82-12.6-49.09,3.15-49.09,28.34v227.6c0,25.19,27.27,40.94,49.09,28.34l197.11-113.8c21.82-12.6,21.82-44.09,0-56.69h0Z"/>
      <path class="cls-8" d="M164.29,396.77l197.11-113.8c10.03-5.79,15.44-15.58,16.24-25.68l-262.44,70.32v40.82c0,25.19,27.27,40.94,49.09,28.34h0Z"/>
      <path class="cls-2" d="M115.2,140.83v40.82l262.44,70.32c-.81-10.11-6.21-19.89-16.24-25.68l-197.11-113.8c-21.82-12.6-49.09,3.15-49.09,28.34h0Z"/>
      <path class="cls-7" d="M361.39,226.28l-35.51-20.5v97.69l35.51-20.5c21.82-12.6,21.82-44.09,0-56.69Z"/>
      <g>
        <polygon class="cls-6" points="299.05 289.8 306.99 274.45 295.25 276.24 299.05 289.8"/>
        <path class="cls-7" d="M299.05,290.8s-.07,0-.1,0c-.41-.04-.75-.33-.86-.73l-3.8-13.56c-.08-.28-.03-.57.12-.81.16-.24.41-.4.69-.45l11.74-1.79c.37-.05.74.1.96.41.22.31.25.71.08,1.04l-7.94,15.35c-.17.33-.52.54-.89.54ZM296.52,277.06l2.81,10.03,5.87-11.35-8.68,1.32Z"/>
      </g>
      <path class="cls-7" d="M299.21,278.25c-8.28,0-16.74-5.33-22.31-14.13-.59-.93-.31-2.17.62-2.76s2.17-.31,2.76.62c5.03,7.95,12.6,12.65,19.77,12.24,4.95-.28,10.01-3.07,13.88-7.66,5.23-6.19,7.68-14.78,6.72-23.58-.12-1.1.67-2.09,1.77-2.21,1.09-.12,2.09.67,2.21,1.77,1.08,9.88-1.7,19.58-7.64,26.6-4.58,5.41-10.67,8.72-16.71,9.07-.36.02-.71.03-1.07.03Z"/>
      <path class="cls-9" d="M276.25,195.29c-10.93,11.22-24.85,19.52-40.48,23.6v.24c0,15.06,12.21,27.26,27.26,27.26s27.26-12.21,27.26-27.26c0-10.26-5.67-19.18-14.04-23.84h0Z"/>
      <path class="cls-10" d="M276.24,195.3c-7.46,7.66-16.32,13.95-26.16,18.48,0,.26-.02.52-.02.79,0,12.02,8.45,21.76,18.88,21.76s18.88-9.74,18.88-21.76c0-4.39-1.13-8.47-3.07-11.89-2.29-3.01-5.19-5.53-8.52-7.38h.01Z"/>
      <ellipse class="cls-12" cx="248.26" cy="246.39" rx="11.02" ry="6.74"/>
    </g>
    <g id="_레이어_1-2" data-name=" 레이어 1-2">
      <path class="cls-11" d="M266.86,149.88l-20.93-51.82c-3.42-7.89-11.75-14.69-20.42-16.35-21.96-4.2-43.67-5.98-66-8.29-19.58-1.96-26.86,17.17-18.77,33.22l31.11,75.48c2.23,5.41,6.94,7.79,12.64,8.02,14.8,1.15,22.4-19.15,11.24-27.47-3.89-2.63-6.18-5.24-7.9-9.54-4.02-12.81-18.17-39.74-19.71-52.82,0-2.62,4.14-3.21,6.3-2.93l40.76,5.39c6.04.8,10.5,3.89,12.7,9.57l17,41.32,21.98-3.79h0Z"/>
      <path class="cls-4" d="M426.12,157.18l-10.55,1.91c-1.11-2.55-2.45-4.99-3.98-7.3l.04-8.86c0-.09-.1-.14-.17-.08l-4.31,3.29c-2.21-2.4-4.68-4.6-7.4-6.54-.28-.2-.56-.38-.84-.57l-1.68-13.08c-.02-.16-.22-.22-.33-.09l-6.83,8.44c-3.54-1.43-7.24-2.42-11.01-2.94l-5.56-6.34c-.06-.07-.16-.04-.18.05l-1.16,5.86c-2.45.03-4.92.24-7.39.65l-1.12.19-11.29-8.64c-.13-.1-.31,0-.29.17l1.12,10.24-11.08,1.87-6.76-4.85c-.07-.05-.17,0-.16.09l.2,5.9-10.24,1.73-10.63-8.13c-.13-.1-.31,0-.29.17l1.06,9.63-11.49,1.94-5.72-4.11c-.07-.05-.17,0-.16.09l.17,4.99-10.63,1.79-9.76-7.46c-.14-.11-.35,0-.33.18l.97,8.82-43.1,7.27,13.59,7.85,117.62-19.85c2.08-.35,4.15-.52,6.22-.52,7.59,0,14.98,2.35,21.3,6.84,8.03,5.71,13.35,14.2,14.99,23.92l.13.76c3.38,20.05-10.18,39.12-30.23,42.51l-28.71,4.85,11.26,6.5c.75.43,1.47.89,2.17,1.37h.06l1.16.88c.25.19.5.38.74.57l9.86,7.55c.13.1.31,0,.29-.17l-1.17-10.67,6-1.01c1.2-.2,2.37-.46,3.53-.75l7.81,5.61c.07.05.17,0,.16-.09l-.27-8.16c2.91-1.29,5.65-2.87,8.19-4.69l8.88.22c.09,0,.14-.1.09-.17l-3.44-4.7c2.22-2.18,4.22-4.56,5.96-7.12l13.44-4.76c.15-.05.17-.26.02-.34l-8.49-4.3c1.18-3.02,2.05-6.17,2.58-9.42l6.37-5.95c.06-.06.03-.16-.05-.18l-5.7-.94c.03-2.74-.17-5.52-.64-8.32l-.13-.76c-.05-.3-.12-.6-.18-.91l7.68-11.64c.09-.14-.03-.31-.19-.28h-.02Z"/>
      <rect class="cls-1" width="474.49" height="474.49"/>
    </g>
  </g>
</svg>